<svg xmlns="http://www.w3.org/2000/svg" viewBox="0 0 20 20" fill="none"><path d="M17.2 7.5C17.6 7.5 17.9 7.3 18.1 7L19.8 4.9C20.1 4.6 20.1 4.1 19.8 3.8L18.1 1.7C17.9 1.4 17.6 1.3 17.2 1.3H10.6V0.3C10.6 0.1 10.5 0 10.3 0H9.7C9.5 0 9.4 0.1 9.4 0.3V1.3H2.2C1.7 1.3 1.2 1.8 1.2 2.4V6.3C1.2 7 1.7 7.5 2.2 7.5H9.4V8.8H2.8C2.4 8.8 2.1 8.9 1.9 9.2L0.2 11.3C-0.1 11.6-0.1 12.1 0.2 12.4L1.9 14.5C2.1 14.8 2.4 15 2.8 15H9.4V19.7C9.4 19.9 9.5 20 9.7 20H10.3C10.5 20 10.6 19.9 10.6 19.7V15H17.8C18.3 15 18.7 14.5 18.7 13.8V9.9C18.7 9.3 18.3 8.8 17.8 8.8H10.6V7.5H17.2ZM17.5 13.8H2.8L1.3 11.9 2.8 10H17.5L17.5 13.8ZM2.5 2.5H17.2L18.7 4.4 17.2 6.3H2.5L2.5 2.5Z"/></svg>
