<svg xmlns="http://www.w3.org/2000/svg" viewBox="0 0 20 23" fill="none"><path d="M9.8 11.3C13 11.3 15.5 8.7 15.5 5.6 15.5 2.5 13 0 9.8 0 6.7 0 4.2 2.5 4.2 5.6 4.2 8.7 6.7 11.3 9.8 11.3ZM9.8 1.4C12.2 1.4 14.1 3.3 14.1 5.6 14.1 7.9 12.2 9.8 9.8 9.8 7.5 9.8 5.6 7.9 5.6 5.6 5.6 3.3 7.5 1.4 9.8 1.4ZM13.9 13.4L12.1 19.4 10.6 15 11.7 13.9C12.2 13.4 11.9 12.7 11.3 12.7H8.4C7.8 12.7 7.5 13.4 7.9 13.9L9 15 7.5 19.4 5.8 13.4C2.6 13.4 0 16 0 19.3V20.4C0 21.6 0.9 22.5 2.1 22.5H17.6C18.7 22.5 19.7 21.6 19.7 20.4V19.3C19.7 16 17.1 13.4 13.9 13.4ZM2.1 21.1C1.7 21.1 1.4 20.8 1.4 20.4V19.3C1.4 17.2 2.8 15.4 4.8 14.9L6.6 21.1H2.1ZM8.5 21.1L9.8 17 11.2 21.1H8.5ZM18.3 20.4C18.3 20.8 18 21.1 17.6 21.1H13.1L14.9 14.9C16.8 15.4 18.3 17.2 18.3 19.3V20.4H18.3Z"/></svg>
