<svg xmlns="http://www.w3.org/2000/svg" viewBox="0 0 20 20" fill="none"><path d="M19 5C19.6 5 20 4.6 20 4V1C20 0.4 19.6 0 19 0H16C15.4 0 15 0.4 15 1V1.9H5V1C5 0.4 4.6 0 4 0H1C0.4 0 0 0.4 0 1V4C0 4.6 0.4 5 1 5H1.9V15H1C0.4 15 0 15.4 0 16V19C0 19.6 0.4 20 1 20H4C4.6 20 5 19.6 5 19V18.1H15V19C15 19.6 15.4 20 16 20H19C19.6 20 20 19.6 20 19V16C20 15.4 19.6 15 19 15H18.1V5H19ZM16.3 1.3H18.8V3.8H16.3V1.3ZM1.3 3.8V1.3H3.8V3.8H1.3ZM3.8 18.8H1.3V16.3H3.8V18.8ZM18.8 16.3V18.8H16.3V16.3H18.8ZM16.9 15H16C15.4 15 15 15.4 15 16V16.9H5V16C5 15.4 4.6 15 4 15H3.1V5H4C4.6 5 5 4.6 5 4V3.1H15V4C15 4.6 15.4 5 16 5H16.9V15Z"/></svg>
