<svg xmlns="http://www.w3.org/2000/svg" viewBox="0 0 60 45" fill="none"><path d="M39 22.5C39.3 22.5 39.6 22.4 39.8 22.2 40.1 22.1 40.3 21.8 40.4 21.6 40.5 21.3 40.5 21 40.5 20.7 40.4 20.4 40.3 20.1 40.1 19.9 39.9 19.7 39.6 19.6 39.3 19.5 39 19.5 38.7 19.5 38.4 19.6 38.2 19.7 37.9 19.9 37.8 20.2 37.6 20.4 37.5 20.7 37.5 21 37.5 21.4 37.7 21.8 37.9 22.1 38.2 22.3 38.6 22.5 39 22.5ZM59.3 33H54V15C54 11 52.4 7.2 49.6 4.4 46.8 1.6 43 0 39 0L9 0C6.6 0 4.3 0.9 2.6 2.6 0.9 4.3 0 6.6 0 9L0 27C0 29.4 0.9 31.7 2.6 33.4 4.3 35.1 6.6 36 9 36 9 38.4 9.9 40.7 11.6 42.4 13.3 44.1 15.6 45 18 45 20.4 45 22.7 44.1 24.4 42.4 26.1 40.7 27 38.4 27 36H59.3C59.4 36 59.6 35.9 59.8 35.8 59.9 35.6 60 35.4 60 35.3V33.8C60 33.6 59.9 33.4 59.8 33.2 59.6 33.1 59.4 33 59.3 33ZM18 42C16.8 42 15.7 41.6 14.7 41 13.7 40.3 12.9 39.4 12.5 38.3 12 37.2 11.9 36 12.1 34.8 12.3 33.7 12.9 32.6 13.8 31.8 14.6 30.9 15.7 30.3 16.8 30.1 18 29.9 19.2 30 20.3 30.5 21.4 30.9 22.3 31.7 23 32.7 23.6 33.7 24 34.8 24 36 24 37.6 23.4 39.1 22.2 40.2 21.1 41.4 19.6 42 18 42ZM42 33H33V12H42V33ZM51 33H45V12C45 11.2 44.7 10.4 44.1 9.9 43.6 9.3 42.8 9 42 9H33C32.2 9 31.4 9.3 30.9 9.9 30.3 10.4 30 11.2 30 12V33H26.4C25.2 29.5 21.9 27 18 27 14.1 27 10.8 29.5 9.6 33H9C7.4 33 5.9 32.4 4.8 31.2 3.6 30.1 3 28.6 3 27V9C3 7.4 3.6 5.9 4.8 4.8 5.9 3.6 7.4 3 9 3H39C42.2 3 45.2 4.3 47.5 6.5 49.7 8.8 51 11.8 51 15V33ZM22.5 9H10.5C9.7 9 8.9 9.3 8.4 9.9 7.8 10.4 7.5 11.2 7.5 12V18C7.5 18.8 7.8 19.6 8.4 20.1 8.9 20.7 9.7 21 10.5 21H22.5C23.3 21 24.1 20.7 24.6 20.1 25.2 19.6 25.5 18.8 25.5 18V12C25.5 11.2 25.2 10.4 24.6 9.9 24.1 9.3 23.3 9 22.5 9ZM22.5 18H10.5V12H22.5V18Z"/></svg>
