<svg xmlns="http://www.w3.org/2000/svg" viewBox="0 0 30 30" fill="none"><path d="M24.4 1.9C23.2 1.9 22 2.3 21 3 19.6 1.2 17.5 0 15 0 12.5 0 10.4 1.2 9 3 8.2 2.4 7.2 2 6.1 1.9 5.1 1.8 4 2 3.1 2.5 2.2 2.9 1.4 3.6 0.8 4.5 0.3 5.4 0 6.5 0 7.5 0 9.9 3.8 20.6 3.8 20.6V28.1C3.8 28.6 3.9 29.1 4.3 29.5 4.7 29.8 5.1 30 5.6 30H24.4C24.9 30 25.3 29.8 25.7 29.5 26.1 29.1 26.3 28.6 26.3 28.1V20.6C26.3 20.6 30 9.9 30 7.5 30 6 29.4 4.6 28.4 3.5 27.3 2.5 25.9 1.9 24.4 1.9ZM24.4 28.1H5.6V22.5H24.4V28.1ZM24.4 20.6H21.8L22.5 11.8C22.5 11.7 22.5 11.5 22.4 11.5 22.3 11.4 22.2 11.3 22.1 11.3L21.1 11.2H21.1C21 11.2 20.9 11.3 20.8 11.3 20.7 11.4 20.6 11.5 20.6 11.6L19.9 20.6H15.9V11.7C15.9 11.6 15.8 11.5 15.8 11.4 15.7 11.3 15.6 11.3 15.4 11.3H14.5C14.4 11.3 14.2 11.3 14.2 11.4 14.1 11.5 14 11.6 14 11.7V20.6H10.1L9.4 11.6C9.4 11.5 9.3 11.4 9.2 11.3 9.1 11.3 9 11.2 8.9 11.2H8.9L7.9 11.3C7.8 11.3 7.7 11.4 7.6 11.4 7.5 11.5 7.5 11.7 7.5 11.8L8.2 20.6H5.6C5.6 20.6 1.9 8.8 1.9 7.5 1.9 6.5 2.3 5.6 3 4.8 3.7 4.1 4.6 3.8 5.6 3.8 6.4 3.8 7.2 4 7.9 4.5L9.4 5.7 10.5 4.2C11.6 2.7 13.2 1.9 15 1.9 16.8 1.9 18.4 2.7 19.5 4.2L20.6 5.7 22.1 4.5C22.8 4 23.6 3.8 24.4 3.8 25.4 3.8 26.3 4.1 27 4.8 27.7 5.6 28.1 6.5 28.1 7.5 28.1 8.8 24.4 20.6 24.4 20.6Z"/></svg>
