<svg xmlns="http://www.w3.org/2000/svg" viewBox="0 0 20 20" fill="none"><path d="M19.6 9.1L10.9 0.4C10.6 0.1 10.3 0 10 0 9.7 0 9.4 0.1 9.1 0.4L0.4 9.1C-0.1 9.6-0.1 10.4 0.4 10.9L9.1 19.6C9.4 19.9 9.7 20 10 20 10.3 20 10.6 19.9 10.9 19.6L19.6 10.9C20.1 10.4 20.1 9.6 19.6 9.1ZM10 18.7L1.3 10 10 1.3C10 1.3 10 1.3 10 1.3L10 1.3 18.7 10 10 18.7ZM12.9 8.8H8.1C7.1 8.8 6.3 9.6 6.3 10.6V12.2C6.3 12.4 6.4 12.5 6.6 12.5H7.2C7.4 12.5 7.5 12.4 7.5 12.2V10.6C7.5 10.3 7.8 10 8.1 10H12.9L10.8 12C10.7 12.1 10.7 12.3 10.8 12.4L11.2 12.9C11.3 13 11.5 13 11.6 12.9L14.7 10.1C14.9 9.9 15 9.6 15 9.4 15 9.1 14.9 8.9 14.7 8.7L11.6 5.9C11.5 5.7 11.3 5.8 11.2 5.9L10.8 6.3C10.7 6.5 10.7 6.7 10.8 6.8L12.9 8.8Z"/></svg>
