<svg xmlns="http://www.w3.org/2000/svg" viewBox="0 0 21 18" fill="none"><path d="M14.7 11.1L15.4 10.4C15.5 10.3 15.8 10.4 15.8 10.5V16.3C15.8 17.2 15 18 14.1 18H1.7C0.8 18 0 17.2 0 16.3V3.9C0 3 0.8 2.3 1.7 2.3H12C12.2 2.3 12.2 2.5 12.1 2.6L11.4 3.3C11.4 3.4 11.3 3.4 11.3 3.4H1.7C1.4 3.4 1.1 3.6 1.1 3.9V16.3C1.1 16.6 1.4 16.9 1.7 16.9H14.1C14.4 16.9 14.6 16.6 14.6 16.3V11.2C14.6 11.2 14.6 11.1 14.7 11.1ZM19.8 4.4L8.8 15.4 5.3 15.7C4.8 15.8 4.5 15.4 4.5 14.9L4.9 11.4 15.9 0.4C16.5-0.1 17.4-0.1 18 0.4L19.8 2.3C20.4 2.9 20.4 3.8 19.8 4.4ZM16.5 6.1L14.2 3.7 6 11.9 5.7 14.6 8.3 14.3 16.5 6.1ZM19 3.1L17.2 1.2C17 1.1 16.8 1.1 16.7 1.2L15 2.9 17.3 5.3 19 3.6C19.2 3.4 19.2 3.2 19 3.1Z"/></svg>
