<svg xmlns="http://www.w3.org/2000/svg" viewBox="0 0 20 27" fill="none"><path d="M16.3 21.7H12.1C11.9 21.7 11.7 21.9 11.7 22.1V22.9C11.7 23.1 11.9 23.3 12.1 23.3H16.3C16.5 23.3 16.7 23.1 16.7 22.9V22.1C16.7 21.9 16.5 21.7 16.3 21.7ZM3.3 12.5V17.5C3.3 18 3.8 18.3 4.3 18.3H15.7C16.2 18.3 16.7 18 16.7 17.5V12.5C16.7 12 16.2 11.7 15.7 11.7H4.3C3.8 11.7 3.3 12 3.3 12.5ZM5 13.3H15V16.7H5V13.3ZM3.8 5H9.6C9.8 5 10 4.8 10 4.6V3.8C10 3.5 9.8 3.3 9.6 3.3H3.8C3.5 3.3 3.3 3.5 3.3 3.8V4.6C3.3 4.8 3.5 5 3.8 5ZM3.8 8.3H9.6C9.8 8.3 10 8.1 10 7.9V7.1C10 6.9 9.8 6.7 9.6 6.7H3.8C3.5 6.7 3.3 6.9 3.3 7.1V7.9C3.3 8.1 3.5 8.3 3.8 8.3ZM19.3 5.1L14.9 0.7C14.4 0.3 13.8 0 13.1 0H2.5C1.1 0 0 1.1 0 2.5V24.2C0 25.5 1.1 26.7 2.5 26.7H17.5C18.9 26.7 20 25.5 20 24.2V6.9C20 6.2 19.7 5.6 19.3 5.1ZM13.3 1.7C13.5 1.7 13.6 1.8 13.7 1.9L18.1 6.3C18.2 6.4 18.3 6.5 18.3 6.7H13.3V1.7ZM18.3 24.2C18.3 24.6 18 25 17.5 25H2.5C2 25 1.7 24.6 1.7 24.2V2.5C1.7 2 2 1.7 2.5 1.7H11.7V7.1C11.7 7.8 12.2 8.3 12.9 8.3H18.3V24.2Z"/></svg>
