<svg xmlns="http://www.w3.org/2000/svg" viewBox="0 0 22 18" fill="none"><path d="M20.8 7.7H19.8C20.1 7.3 20.2 6.9 20.2 6.5 20.2 5.5 19.4 4.4 17.9 4.4 16.4 4.4 15.4 5.6 14.8 6.5 14.2 5.6 13.1 4.4 11.6 4.4 11.4 4.4 11.1 4.4 10.9 4.5V4.4C10.9 3.8 10.4 3.3 9.8 3.3H7.4L8.9 2.2C9 2.1 9.1 2 9 1.8L8.7 1.4C8.6 1.3 8.4 1.3 8.3 1.3L6.5 2.6 7.2 0.6C7.3 0.4 7.2 0.3 7.1 0.2L6.6 0C6.4 0 6.3 0 6.2 0.2L5.5 2.2 4.7 0.2C4.7 0 4.5 0 4.4 0L3.9 0.2C3.7 0.3 3.6 0.4 3.7 0.6L4.5 2.6 2.7 1.3C2.5 1.3 2.4 1.3 2.3 1.4L2 1.9C1.9 2 1.9 2.1 2 2.2L3.5 3.3H1.1C0.5 3.3 0 3.8 0 4.4V16.4C0 17 0.5 17.5 1.1 17.5H20.8C21.4 17.5 21.9 17 21.9 16.4V8.8C21.9 8.1 21.4 7.7 20.8 7.7ZM11.6 5.5C12.9 5.5 13.9 7 14.2 7.7H12.2C11.5 7.7 11 7.4 10.8 7.3 10.5 7.1 10.4 6.8 10.4 6.5 10.4 6 10.8 5.5 11.6 5.5ZM7.7 8.8V16.4H1.1V4.4H9.8V5.1C9.5 5.5 9.3 6 9.3 6.5 9.3 6.9 9.4 7.3 9.7 7.7H8.7C8.1 7.7 7.7 8.1 7.7 8.8ZM14.2 16.4H8.7V13.1H14.2V16.4ZM14.2 12H8.7V8.8H14.2V12ZM17.9 5.5C18.7 5.5 19.1 6 19.1 6.5 19.1 6.8 19 7.1 18.7 7.3 18.5 7.4 18.1 7.7 17.3 7.7H15.4C15.7 7 16.6 5.5 17.9 5.5ZM20.8 16.4H15.3V13.1H20.8V16.4ZM20.8 12H15.3V8.8H20.8V12Z"/></svg>
