<svg xmlns="http://www.w3.org/2000/svg" viewBox="0 0 51 45" fill="none"><path d="M34.9 19.7H38.3C38.8 19.7 39.4 19.1 39.4 18.6V15.2C39.4 14.6 38.8 14.1 38.3 14.1H34.9C34.3 14.1 33.8 14.6 33.8 15.2V18.6C33.8 19.1 34.3 19.7 34.9 19.7ZM23.6 11.3H27C27.6 11.3 28.1 10.7 28.1 10.1V6.8C28.1 6.2 27.6 5.6 27 5.6H23.6C23.1 5.6 22.5 6.2 22.5 6.8V10.1C22.5 10.7 23.1 11.3 23.6 11.3ZM34.9 11.3H38.3C38.8 11.3 39.4 10.7 39.4 10.1V6.8C39.4 6.2 38.8 5.6 38.3 5.6H34.9C34.3 5.6 33.8 6.2 33.8 6.8V10.1C33.8 10.7 34.3 11.3 34.9 11.3ZM12.4 11.3H15.8C16.3 11.3 16.9 10.7 16.9 10.1V6.8C16.9 6.2 16.3 5.6 15.8 5.6H12.4C11.8 5.6 11.3 6.2 11.3 6.8V10.1C11.3 10.7 11.8 11.3 12.4 11.3ZM23.6 19.7H27C27.6 19.7 28.1 19.1 28.1 18.6V15.2C28.1 14.6 27.6 14.1 27 14.1H23.6C23.1 14.1 22.5 14.6 22.5 15.2V18.6C22.5 19.1 23.1 19.7 23.6 19.7ZM49.9 2.8C50.3 2.8 50.6 2.5 50.6 2.1V0.7C50.6 0.3 50.3 0 49.9 0H0.7C0.3 0 0 0.3 0 0.7V2.1C0 2.5 0.3 2.8 0.7 2.8H2.8V42.2H0.7C0.3 42.2 0 42.5 0 42.9V44.3C0 44.7 0.3 45 0.7 45H49.9C50.3 45 50.6 44.7 50.6 44.3V42.9C50.6 42.5 50.3 42.2 49.9 42.2H47.8V2.8H49.9ZM28.1 42.2H22.5V35.2C22.5 34.4 23.1 33.8 23.9 33.8H26.7C27.5 33.8 28.1 34.4 28.1 35.2V42.2ZM45 42.2H30.9V35.2C30.9 32.8 29 30.9 26.7 30.9H23.9C21.6 30.9 19.7 32.8 19.7 35.2V42.2H5.6V2.8H45V42.2ZM12.4 19.7H15.8C16.3 19.7 16.9 19.1 16.9 18.6V15.2C16.9 14.6 16.3 14.1 15.8 14.1H12.4C11.8 14.1 11.3 14.6 11.3 15.2V18.6C11.3 19.1 11.8 19.7 12.4 19.7ZM14.7 33.5L16.1 33.7C16.5 33.8 16.8 33.5 16.9 33.2 17.8 29.4 21.3 26.7 25.3 26.7 29.3 26.7 32.8 29.4 33.7 33.2 33.8 33.5 34.1 33.8 34.5 33.7L35.9 33.5C36.3 33.5 36.6 33.1 36.5 32.7 35.4 27.6 30.7 23.9 25.3 23.9 19.9 23.9 15.2 27.6 14.1 32.7 14 33.1 14.3 33.5 14.7 33.5Z"/></svg>
