<svg xmlns="http://www.w3.org/2000/svg" viewBox="0 0 20 20" fill="none"><path d="M19.3 2.5H14.4L12.8 0.9C12.5 0.6 12.2 0.4 11.8 0.2 11.4 0.1 11 0 10.6 0 9.8 0 9 0.3 8.4 0.9 7.8 1.5 7.5 2.3 7.5 3.1 7.5 4 7.8 4.7 8.4 5.3L8.6 5.5 4.6 9.6C4.5 9.6 4.4 9.7 4.4 9.8 4.4 10 4.4 10.1 4.4 10.2L6.2 16.3H3.1C1.8 16.3 0.5 17.2 0.1 18.4 0 18.6 0 18.8 0 19 0 19.1 0.1 19.3 0.2 19.5 0.4 19.6 0.5 19.8 0.7 19.9 0.9 20 1.1 20 1.3 20H13.7C13.9 20 14.1 20 14.3 19.9 14.5 19.8 14.6 19.6 14.8 19.5 14.9 19.3 15 19.1 15 19 15 18.8 15 18.6 14.9 18.4 14.5 17.2 13.2 16.3 11.9 16.3H7.5L5.7 10.2 9.5 6.4 10 6.9V11.8C10 11.9 10 12 10.1 12.1 10.1 12.2 10.1 12.2 10.2 12.3 10.3 12.4 10.3 12.4 10.4 12.4 10.5 12.5 10.6 12.5 10.7 12.5 10.8 12.5 10.9 12.5 11 12.4 11 12.4 11.1 12.4 11.2 12.3L13.5 9.9C14 10.4 14.6 10.6 15.3 10.6 16.1 10.6 16.8 10.3 17.3 9.8 17.8 9.3 18.1 8.6 18.1 7.8 18.1 7.1 17.9 6.5 17.4 6L19.8 3.7C20.2 3.2 19.9 2.5 19.3 2.5ZM11.9 17.5C12.7 17.5 13.5 18 13.7 18.8H1.2C1.5 18 2.3 17.5 3.1 17.5H11.9ZM15.3 9.4C15 9.4 14.7 9.3 14.4 9.1L16.6 6.9C16.8 7.2 16.9 7.5 16.9 7.8 16.9 8.2 16.7 8.6 16.4 8.9 16.1 9.2 15.7 9.4 15.3 9.4ZM11.2 10.5V6.4L9.3 4.5C9 4.1 8.8 3.6 8.8 3.1 8.8 2.6 9 2.2 9.3 1.8 9.7 1.5 10.1 1.3 10.6 1.3 11.1 1.3 11.6 1.5 12 1.8L13.9 3.8H18L11.2 10.5Z"/></svg>
