<svg xmlns="http://www.w3.org/2000/svg" viewBox="0 0 20 23" fill="none"><path d="M10 18.8C9.5 18.8 9.1 18.3 9.1 17.9V15C9.1 14.5 9.5 14.1 10 14.1 10.5 14.1 10.9 14.5 10.9 15V17.9C10.9 18.3 10.5 18.8 10 18.8ZM20 12.1V20.7C20 21.9 19 22.9 17.9 22.9H2.1C1 22.9 0 21.9 0 20.7V12.1C0 11 1 10 2.1 10H2.9V7.1C2.9 3.2 6.1 0 10 0 14 0 17.1 3.3 17.1 7.2V10H17.9C19 10 20 11 20 12.1ZM4.3 10H15.7V7.1C15.7 4 13.2 1.4 10 1.4 6.8 1.4 4.3 4 4.3 7.1V10ZM18.6 20.7V12.1C18.6 11.8 18.3 11.4 17.9 11.4H2.1C1.8 11.4 1.4 11.8 1.4 12.1V20.7C1.4 21.1 1.8 21.4 2.1 21.4H17.9C18.3 21.4 18.6 21.1 18.6 20.7Z"/></svg>
