<svg xmlns="http://www.w3.org/2000/svg" viewBox="0 0 20 20" fill="none"><path d="M13.8 9.7V9.1C13.8 8.9 13.6 8.8 13.4 8.8H6.6C6.4 8.8 6.3 8.9 6.3 9.1V9.7C6.3 9.9 6.4 10 6.6 10H13.4C13.6 10 13.8 9.9 13.8 9.7ZM6.6 7.5H13.4C13.6 7.5 13.8 7.4 13.8 7.2V6.6C13.8 6.4 13.6 6.3 13.4 6.3H6.6C6.4 6.3 6.3 6.4 6.3 6.6V7.2C6.3 7.4 6.4 7.5 6.6 7.5ZM19.3 6.4C19.2 6.4 18.5 5.7 17.5 5V3.8C17.5 3.1 16.9 2.5 16.3 2.5H14.4C14.3 2.4 14.1 2.3 14 2.2 13.2 1.5 11.7 0 10 0 8.3 0 6.9 1.5 6 2.2 5.9 2.3 5.7 2.4 5.6 2.5H3.8C3.1 2.5 2.5 3.1 2.5 3.8V5C1.5 5.7 0.8 6.4 0.7 6.4 0.5 6.6 0.3 6.8 0.2 7.1 0.1 7.3 0 7.6 0 7.9L0 18.1C0 19.2 0.8 20 1.9 20H18.1C19.2 20 20 19.2 20 18.1V7.9C20 7.3 19.8 6.8 19.3 6.4ZM10 1.3C10.9 1.3 11.7 1.9 12.5 2.5H7.5C8.3 1.9 9.2 1.3 10 1.3ZM3.8 3.8H16.3V10.5C15 11.5 13.7 12.6 12.9 13.2 12.2 13.8 10.9 15 10 15 9.1 15 7.8 13.8 7.1 13.2 6.3 12.6 5 11.5 3.8 10.5V3.8ZM1.3 7.9C1.3 7.7 1.3 7.5 1.5 7.4 1.5 7.3 1.9 7 2.5 6.6V9.5C2 9.2 1.6 8.8 1.3 8.5V7.9ZM18.8 18.1C18.8 18.5 18.5 18.8 18.1 18.8H1.9C1.5 18.8 1.3 18.5 1.3 18.1V10.1C2.9 11.5 5.1 13.2 6.4 14.2 7.2 14.8 8.6 16.3 10 16.2 11.4 16.3 12.8 14.9 13.6 14.2 14.9 13.2 17.1 11.5 18.8 10.1V18.1ZM18.8 8.5C18.4 8.8 18 9.1 17.5 9.5V6.6C18.1 7 18.5 7.3 18.5 7.4 18.7 7.5 18.8 7.7 18.8 7.9V8.5Z"/></svg>
