<svg xmlns="http://www.w3.org/2000/svg" viewBox="0 0 20 18" fill="none"><path d="M10 8.1C9.4 8.1 8.8 8.3 8.3 8.7 7.7 9 7.3 9.5 7.1 10.1 6.9 10.6 6.8 11.3 6.9 11.9 7.1 12.5 7.4 13 7.8 13.5 8.2 13.9 8.8 14.2 9.4 14.3 10 14.4 10.6 14.4 11.2 14.1 11.8 13.9 12.3 13.5 12.6 13 12.9 12.5 13.1 11.9 13.1 11.3 13.1 10.4 12.8 9.6 12.2 9 11.6 8.5 10.8 8.1 10 8.1ZM10 13.1C9.6 13.1 9.3 13 9 12.8 8.6 12.6 8.4 12.3 8.3 12 8.1 11.6 8.1 11.2 8.2 10.9 8.2 10.5 8.4 10.2 8.7 9.9 8.9 9.7 9.3 9.5 9.6 9.4 10 9.3 10.4 9.4 10.7 9.5 11.1 9.7 11.4 9.9 11.6 10.2 11.8 10.5 11.9 10.9 11.9 11.3 11.9 11.7 11.7 12.2 11.3 12.6 11 12.9 10.5 13.1 10 13.1ZM14.5 6.3C14.3 5.9 13.9 5.6 13.6 5.3 13.2 5.1 12.7 5 12.3 5H7.7C7.3 5 6.8 5.1 6.4 5.3 6.1 5.6 5.7 5.9 5.5 6.3L1.4 13.5C1.3 13.7 1.2 13.9 1.3 14.1V16.2C1.3 16.6 1.4 16.9 1.6 17.1 1.9 17.4 2.2 17.5 2.5 17.5H17.5C17.8 17.5 18.1 17.4 18.4 17.1 18.6 16.9 18.8 16.6 18.8 16.2V14.1C18.8 13.9 18.7 13.7 18.6 13.5L14.5 6.3ZM17.5 16.2H2.5V14.1L6.6 6.9C6.7 6.7 6.9 6.5 7.1 6.4 7.3 6.3 7.5 6.3 7.7 6.2H12.3C12.5 6.3 12.7 6.3 12.9 6.4 13.1 6.5 13.3 6.7 13.4 6.9L17.5 14.1V16.2ZM19.5 3.4C16.9 1.2 13.5 0 10 0 6.5 0 3.1 1.2 0.5 3.4 0.3 3.5 0.2 3.6 0.1 3.8 0 4 0 4.2 0 4.3V6.9C0 7 0.1 7.2 0.2 7.3 0.3 7.4 0.5 7.5 0.6 7.5H3.4C3.5 7.5 3.6 7.5 3.7 7.4 3.8 7.3 3.9 7.3 3.9 7.2L5 4.7C6.6 4 8.3 3.7 10 3.7 11.7 3.7 13.4 4 15 4.7L16.1 7.2C16.1 7.3 16.2 7.3 16.3 7.4 16.4 7.5 16.5 7.5 16.6 7.5H19.4C19.5 7.5 19.7 7.4 19.8 7.3 19.9 7.2 20 7 20 6.9V4.3C20 4.2 20 4 19.9 3.8 19.8 3.6 19.7 3.5 19.5 3.4ZM18.8 6.2H17L16.1 4.2 16 3.7 15.5 3.5C13.9 2.8 12.1 2.5 10 2.5 7.9 2.5 6.1 2.8 4.5 3.5L4.1 3.7 3.9 4.2 3 6.2H1.2L1.2 4.3C3.7 2.3 6.8 1.3 10 1.3 13.2 1.3 16.3 2.3 18.8 4.3V6.2Z"/></svg>
