<svg viewBox="0 0 35 35" fill="none" xmlns="http://www.w3.org/2000/svg">
  <path d="M17.5 0C7.83398 0 0 7.83398 0 17.5C0 27.166 7.83398 35 17.5 35C27.166 35 35 27.166 35 17.5C35 7.83398 27.166 0 17.5 0ZM17.5 32.8125C9.05762 32.8125 2.1875 25.9424 2.1875 17.5C2.1875 13.6719 3.60938 10.1719 5.94043 7.48535L27.5146 29.0596C24.8281 31.3906 21.3281 32.8125 17.5 32.8125ZM19.0449 17.5H26.25V19.6875H21.2324L19.0449 17.5ZM29.0596 27.5146L23.4199 21.875H27.3438C27.9453 21.875 28.4375 21.3828 28.4375 20.7812V16.4062C28.4375 15.8047 27.9453 15.3125 27.3438 15.3125H16.8574L7.48535 5.94043C10.1719 3.60938 13.6719 2.1875 17.5 2.1875C25.9424 2.1875 32.8125 9.05762 32.8125 17.5C32.8125 21.3281 31.3906 24.8281 29.0596 27.5146ZM7.65625 21.875H17.2334L15.0459 19.6875H8.75V17.5H12.8584L10.6709 15.3125H7.65625C7.05469 15.3125 6.5625 15.8047 6.5625 16.4062V20.7812C6.5625 21.3828 7.05469 21.875 7.65625 21.875ZM24.0625 8.75C22.9961 8.75 22.1074 7.98438 21.916 6.97949C21.8682 6.7334 21.6426 6.5625 21.3896 6.5625H20.2822C19.9404 6.5625 19.6875 6.87012 19.7354 7.20508C20.0498 9.31738 21.8682 10.9375 24.0625 10.9375C25.1289 10.9375 26.0176 11.7031 26.209 12.708C26.2568 12.9541 26.4824 13.125 26.7354 13.125H27.8428C28.1846 13.125 28.4375 12.8174 28.3896 12.4824C28.082 10.3701 26.2568 8.75 24.0625 8.75Z"/>
</svg>
