<svg xmlns="http://www.w3.org/2000/svg" viewBox="0 0 40 20" fill="none"><path d="M8 12C11.3 12 14 9.3 14 6 14 2.7 11.3 0 8 0 4.7 0 2 2.7 2 6 2 9.3 4.7 12 8 12ZM8 2C10.2 2 12 3.8 12 6 12 8.2 10.2 10 8 10 5.8 10 4 8.2 4 6 4 3.8 5.8 2 8 2ZM11.9 15.4C12 15.6 12.5 15.8 13.3 15.9L15.9 12.2C16.9 10.8 17.9 9.5 19.1 8.3L28.7 15C29.4 14.5 30.2 14.2 30.9 14.1L20.5 6.8C21.9 5.4 23.5 4 25.1 2.8 25.8 2.4 26.7 2.2 27.5 2.4L33.8 3.5C34.4 3.6 34.9 3.2 35 2.7 35.1 2.1 34.7 1.6 34.2 1.5L27.9 0.4C27.3 0.2 26.6 0.2 25.9 0.4 25.2 0.5 24.5 0.8 24 1.2 20.2 3.9 16.9 7.2 14.3 11L11.4 15.1C11.6 15.2 11.7 15.3 11.9 15.4ZM39.5 18H38C36.4 18 35.1 17.5 34.5 16.9 33.9 16.4 33.3 16 32.5 16H31.5C30.7 16 30.1 16.4 29.5 16.9 28.9 17.5 27.6 18 26 18 24.4 18 23.1 17.5 22.5 16.9 21.9 16.4 21.3 16 20.5 16H19.5C18.7 16 18.1 16.4 17.5 16.9 16.9 17.5 15.6 18 14 18 12.4 18 11.1 17.5 10.5 16.9 9.9 16.4 9.3 16 8.5 16H7.5C6.7 16 6.1 16.4 5.5 16.9 4.9 17.5 3.6 18 2 18H0.5C0.2 18 0 18.2 0 18.5V19.5C0 19.8 0.2 20 0.5 20H2C4.4 20 6.5 19.2 8 18 9.5 19.2 11.6 20 14 20 16.4 20 18.5 19.2 20 18 21.5 19.2 23.6 20 26 20 28.4 20 30.5 19.2 32 18 33.5 19.2 35.6 20 38 20H39.5C39.8 20 40 19.8 40 19.5V18.5C40 18.2 39.8 18 39.5 18Z"/></svg>
