<svg xmlns="http://www.w3.org/2000/svg" viewBox="0 0 16 18" fill="none"><path d="M10.4 15.2H11C11 15.2 11.1 15.2 11.2 15.1 11.2 15.1 11.3 15 11.3 14.9V5.3C11.3 5.3 11.2 5.2 11.2 5.1 11.1 5.1 11 5.1 11 5.1H10.4C10.3 5.1 10.3 5.1 10.2 5.1 10.2 5.2 10.1 5.3 10.1 5.3V14.9C10.1 15 10.2 15.1 10.2 15.1 10.3 15.2 10.3 15.2 10.4 15.2ZM4.8 15.2H5.3C5.4 15.2 5.5 15.2 5.5 15.1 5.6 15.1 5.6 15 5.6 14.9V5.3C5.6 5.3 5.6 5.2 5.5 5.1 5.5 5.1 5.4 5.1 5.3 5.1H4.8C4.7 5.1 4.6 5.1 4.6 5.1 4.5 5.2 4.5 5.3 4.5 5.3V14.9C4.5 15 4.5 15.1 4.6 15.1 4.6 15.2 4.7 15.2 4.8 15.2ZM15.5 2.3H11.8L10.6 0.7C10.5 0.5 10.3 0.3 10 0.2 9.8 0.1 9.5 0 9.3 0L6.5 0C6.2 0 5.9 0.1 5.7 0.2 5.5 0.3 5.3 0.5 5.1 0.7L3.9 2.3H0.3C0.2 2.3 0.1 2.3 0.1 2.3 0 2.4 0 2.5 0 2.5L0 3.1C0 3.2 0 3.2 0.1 3.3 0.1 3.3 0.2 3.4 0.3 3.4H1.1V16.3C1.1 16.8 1.3 17.2 1.6 17.5 1.9 17.8 2.4 18 2.8 18H12.9C13.4 18 13.8 17.8 14.1 17.5 14.4 17.2 14.6 16.8 14.6 16.3V3.4H15.5C15.5 3.4 15.6 3.3 15.7 3.3 15.7 3.2 15.8 3.2 15.8 3.1V2.5C15.8 2.5 15.7 2.4 15.7 2.3 15.6 2.3 15.5 2.3 15.5 2.3ZM6 1.4C6.1 1.3 6.1 1.2 6.2 1.2 6.3 1.1 6.4 1.1 6.5 1.1H9.3C9.4 1.1 9.5 1.1 9.5 1.2 9.6 1.2 9.7 1.3 9.7 1.4L10.4 2.3H5.3L6 1.4ZM13.5 16.3C13.5 16.5 13.4 16.6 13.3 16.7 13.2 16.8 13.1 16.9 12.9 16.9H2.8C2.7 16.9 2.5 16.8 2.4 16.7 2.3 16.6 2.3 16.5 2.3 16.3V3.4H13.5V16.3ZM7.6 15.2H8.2C8.2 15.2 8.3 15.2 8.4 15.1 8.4 15.1 8.4 15 8.4 14.9V5.3C8.4 5.3 8.4 5.2 8.4 5.1 8.3 5.1 8.2 5.1 8.2 5.1H7.6C7.5 5.1 7.4 5.1 7.4 5.1 7.3 5.2 7.3 5.3 7.3 5.3V14.9C7.3 15 7.3 15.1 7.4 15.1 7.4 15.2 7.5 15.2 7.6 15.2Z"/></svg>
