<svg fill="none" viewBox="0 0 90 28" xmlns="http://www.w3.org/2000/svg">
    <style>
        .a {
            fill: #5B636D;
        }

        .b {
            fill: #1485D7;
        }
    </style>
    <path class="a"
          d="M10.3 20.7C9.9 21.1 9.4 21.4 8.8 21.6 8.3 21.7 7.7 21.8 7.1 21.8 5.7 21.8 4.7 21.5 4 20.7 3.2 20 2.9 18.9 2.9 17.6V7.5H0V6.2H2.9V2.8H4.3V6.2H9.3V7.5H4.3V17.5C4.3 18.5 4.6 19.2 5.1 19.8 5.6 20.3 6.3 20.6 7.2 20.6 8.2 20.6 9 20.3 9.6 19.7L10.3 20.7Z"/>
    <path class="a"
          d="M15.8 9.6C16.3 8.4 17.1 7.6 18.1 7 19.1 6.4 20.3 6.1 21.8 6.1V7.5L21.4 7.5C19.7 7.5 18.3 8 17.4 9.1 16.4 10.2 15.9 11.7 15.9 13.6V21.7H14.4V6.2H15.8V9.6Z"/>
    <path class="a"
          d="M25.9 6.2H27.3V21.7H25.9V6.2ZM26.6 2.4C26.3 2.4 26 2.3 25.7 2.1 25.5 1.8 25.4 1.6 25.4 1.2 25.4 0.9 25.5 0.6 25.7 0.4 26 0.1 26.3 0 26.6 0 26.9 0 27.2 0.1 27.5 0.4 27.7 0.6 27.8 0.9 27.8 1.2 27.8 1.5 27.7 1.8 27.5 2.1 27.2 2.3 26.9 2.4 26.6 2.4Z"/>
    <path class="a"
          d="M41.4 6.1C42.9 6.1 44.2 6.4 45.3 7.1 46.5 7.8 47.4 8.7 48.1 9.9 48.7 11.1 49.1 12.4 49.1 14 49.1 15.5 48.7 16.8 48.1 18.1 47.4 19.2 46.5 20.2 45.3 20.9 44.2 21.5 42.9 21.8 41.4 21.8 40 21.8 38.8 21.5 37.7 20.9 36.6 20.2 35.7 19.3 35.1 18.2V27.5H33.6V6.2H35V9.8C35.7 8.7 36.5 7.7 37.6 7.1 38.8 6.4 40 6.1 41.4 6.1ZM41.3 20.5C42.5 20.5 43.6 20.2 44.5 19.7 45.5 19.1 46.2 18.3 46.8 17.3 47.3 16.4 47.6 15.2 47.6 14 47.6 12.7 47.3 11.6 46.8 10.6 46.2 9.6 45.5 8.8 44.5 8.2 43.6 7.7 42.5 7.4 41.3 7.4 40.1 7.4 39.1 7.7 38.1 8.2 37.2 8.8 36.4 9.6 35.9 10.6 35.3 11.6 35.1 12.7 35.1 14 35.1 15.2 35.3 16.4 35.9 17.3 36.4 18.3 37.2 19.1 38.1 19.7 39.1 20.2 40.1 20.5 41.3 20.5Z"/>
    <path class="b"
          d="M69.3 5.7V19C69.3 22 68.5 24.2 67 25.6 65.5 27 63.2 27.7 60.3 27.7 58.8 27.7 57.3 27.5 55.9 27.2 54.5 26.8 53.4 26.2 52.5 25.5L54.3 22.2C55 22.7 55.8 23.2 56.9 23.5 57.9 23.8 58.9 24 59.9 24 61.6 24 62.7 23.6 63.5 22.9 64.3 22.2 64.6 21.1 64.6 19.6V18.9C63.4 20.3 61.8 20.9 59.6 20.9 58.1 20.9 56.8 20.6 55.5 20 54.3 19.3 53.4 18.4 52.7 17.3 51.9 16.1 51.6 14.7 51.6 13.2 51.6 11.7 51.9 10.3 52.7 9.2 53.4 8 54.3 7.1 55.5 6.5 56.8 5.8 58.1 5.5 59.6 5.5 61.9 5.5 63.7 6.2 64.9 7.8V5.7H69.3ZM60.5 17.1C61.7 17.1 62.7 16.8 63.5 16.1 64.3 15.3 64.7 14.4 64.7 13.2 64.7 12 64.3 11.1 63.5 10.4 62.7 9.6 61.7 9.3 60.5 9.3 59.3 9.3 58.3 9.6 57.5 10.4 56.7 11.1 56.3 12 56.3 13.2 56.3 14.4 56.7 15.3 57.5 16.1 58.3 16.8 59.3 17.1 60.5 17.1Z"/>
    <path class="b"
          d="M81.2 22C79.5 22 78 21.6 76.7 20.9 75.3 20.2 74.3 19.2 73.5 18 72.8 16.7 72.4 15.3 72.4 13.7 72.4 12.1 72.8 10.7 73.5 9.5 74.3 8.2 75.3 7.2 76.7 6.5 78 5.8 79.5 5.5 81.2 5.5 82.9 5.5 84.4 5.8 85.7 6.5 87.1 7.2 88.1 8.2 88.9 9.5 89.6 10.7 90 12.1 90 13.7 90 15.3 89.6 16.7 88.9 18 88.1 19.2 87.1 20.2 85.7 20.9 84.4 21.6 82.9 22 81.2 22ZM81.2 18.1C82.4 18.1 83.4 17.7 84.1 17 84.9 16.1 85.3 15.1 85.3 13.7 85.3 12.4 84.9 11.3 84.1 10.5 83.4 9.7 82.4 9.3 81.2 9.3 80 9.3 79.1 9.7 78.3 10.5 77.5 11.3 77.1 12.4 77.1 13.7 77.1 15.1 77.5 16.1 78.3 17 79.1 17.7 80 18.1 81.2 18.1Z"/>
</svg>
