<svg xmlns="http://www.w3.org/2000/svg" viewBox="0 0 20 16" fill="none"><path d="M15.4 4.2L14.3 1C14.1 0.4 13.6 0 12.9 0H3.1C2.4 0 1.9 0.4 1.7 1L0.1 5.8C0 5.9 0 6.1 0 6.2V14.5C0 15.3 0.7 16 1.5 16H14C17.3 16 20 13.3 20 10 20 7.2 18 4.8 15.4 4.2ZM8.5 1H12.9C13.1 1 13.3 1.1 13.4 1.3L14.3 4C14.2 4 14.1 4 14 4 12.2 4 10.6 4.8 9.5 6H8.5V1ZM2.6 1.3C2.7 1.1 2.9 1 3.1 1H7.5V6H1.1L2.6 1.3ZM1.5 15C1.2 15 1 14.8 1 14.5V7H8.8C8.3 7.9 8 8.9 8 10 8 12.1 9.1 13.9 10.7 15H1.5ZM14 15C11.2 15 9 12.8 9 10 9 7.2 11.2 5 14 5 16.8 5 19 7.2 19 10 19 12.8 16.8 15 14 15ZM16 8.1C15.9 8 15.8 8 15.7 8.1L13.5 10.2 12.5 9.3C12.4 9.2 12.3 9.2 12.2 9.3L11.6 9.9C11.5 10 11.5 10.1 11.6 10.2L13.3 11.9C13.4 12 13.6 12 13.7 11.9L16.6 9C16.7 8.9 16.7 8.8 16.6 8.7L16 8.1Z"/></svg>
