<svg xmlns="http://www.w3.org/2000/svg" viewBox="0 0 20 20" fill="none"><path d="M18.8 1.3C18.8 0.9 18.6 0.6 18.4 0.4 18.1 0.1 17.8 0 17.5 0L2.5 0C2.2 0 1.9 0.1 1.6 0.4 1.4 0.6 1.3 0.9 1.3 1.3V10H18.8V1.3ZM9.4 8.8H2.5V1.3H9.4V8.8ZM17.5 8.8H10.6V1.3H17.5V8.8ZM19.4 16.3H18.8V11.3H17.5V16.3H2.5V11.3H1.3V16.3H0.6C0.5 16.3 0.3 16.3 0.2 16.4 0.1 16.6 0 16.7 0 16.9L0 19.4C0 19.5 0.1 19.7 0.2 19.8 0.3 19.9 0.5 20 0.6 20H19.4C19.5 20 19.7 19.9 19.8 19.8 19.9 19.7 20 19.5 20 19.4V16.9C20 16.7 19.9 16.6 19.8 16.4 19.7 16.3 19.5 16.3 19.4 16.3ZM18.8 18.8H1.3V17.5H18.8V18.8Z"/></svg>
