<svg fill="none" height="37" viewBox="0 0 120 37" width="120" xmlns="http://www.w3.org/2000/svg">
    <style>.aa {
        fill: #5B636D;
    }

    .b {
        fill: #1485D7;
    }</style>
    <path class="a"
          d="M13.7 27.6C13.2 28.1 12.5 28.5 11.8 28.8 11 29 10.3 29.1 9.4 29.1 7.6 29.1 6.3 28.6 5.3 27.6 4.3 26.6 3.8 25.3 3.8 23.5V10H0V8.3H3.8V3.7H5.8V8.3H12.4V10H5.8V23.3C5.8 24.6 6.1 25.7 6.7 26.4 7.4 27.1 8.4 27.4 9.6 27.4 10.9 27.4 12 27 12.9 26.3L13.7 27.6Z"/>
    <path class="a"
          d="M21.1 12.8C21.8 11.3 22.7 10.1 24.1 9.3 25.4 8.5 27.1 8.1 29 8.1V10L28.5 10C26.2 10 24.4 10.7 23.1 12.2 21.8 13.6 21.2 15.6 21.2 18.2V29H19.2V8.3H21.1V12.8Z"/>
    <path class="a"
          d="M34.5 8.3H36.5V29H34.5V8.3ZM35.5 3.2C35 3.2 34.6 3.1 34.3 2.8 34 2.5 33.8 2.1 33.8 1.6 33.8 1.2 34 0.8 34.3 0.5 34.6 0.2 35 0 35.5 0 35.9 0 36.3 0.2 36.6 0.5 36.9 0.8 37.1 1.1 37.1 1.6 37.1 2 36.9 2.4 36.6 2.7 36.3 3.1 35.9 3.2 35.5 3.2Z"/>
    <path class="a"
          d="M55.2 8.1C57.1 8.1 58.9 8.5 60.4 9.4 62 10.3 63.2 11.6 64.1 13.2 65 14.8 65.4 16.6 65.4 18.6 65.4 20.6 65 22.5 64.1 24.1 63.2 25.7 62 26.9 60.4 27.8 58.9 28.7 57.1 29.1 55.2 29.1 53.4 29.1 51.7 28.7 50.3 27.8 48.8 27 47.6 25.8 46.8 24.2V36.6H44.8V8.3H46.7V13.1C47.5 11.5 48.7 10.3 50.2 9.4 51.7 8.5 53.4 8.1 55.2 8.1ZM55.1 27.3C56.7 27.3 58.1 27 59.4 26.2 60.6 25.5 61.6 24.4 62.3 23.1 63.1 21.8 63.5 20.3 63.5 18.6 63.5 16.9 63.1 15.4 62.3 14.1 61.6 12.8 60.6 11.7 59.4 11 58.1 10.2 56.7 9.9 55.1 9.9 53.5 9.9 52.1 10.2 50.8 11 49.6 11.7 48.6 12.8 47.8 14.1 47.1 15.4 46.8 16.9 46.8 18.6 46.8 20.3 47.1 21.8 47.8 23.1 48.6 24.4 49.6 25.5 50.8 26.2 52.1 27 53.5 27.3 55.1 27.3Z"/>
    <path class="b"
          d="M92.4 7.6V25.4C92.4 29.3 91.4 32.2 89.3 34.1 87.3 36 84.3 37 80.4 37 78.3 37 76.4 36.7 74.5 36.2 72.7 35.7 71.2 35 69.9 34L72.4 29.6C73.3 30.3 74.4 30.9 75.8 31.3 77.2 31.8 78.6 32 79.9 32 82.1 32 83.6 31.5 84.7 30.5 85.7 29.6 86.2 28.1 86.2 26.2V25.3C84.6 27 82.3 27.9 79.5 27.9 77.5 27.9 75.7 27.5 74.1 26.7 72.4 25.8 71.2 24.6 70.2 23 69.3 21.4 68.8 19.6 68.8 17.6 68.8 15.6 69.3 13.8 70.2 12.2 71.2 10.7 72.4 9.5 74.1 8.6 75.7 7.7 77.5 7.3 79.5 7.3 82.5 7.3 84.9 8.3 86.5 10.4V7.6H92.4ZM80.7 22.8C82.3 22.8 83.7 22.4 84.7 21.4 85.7 20.4 86.3 19.2 86.3 17.6 86.3 16.1 85.7 14.8 84.7 13.8 83.7 12.9 82.3 12.4 80.7 12.4 79 12.4 77.7 12.9 76.6 13.8 75.6 14.8 75.1 16.1 75.1 17.6 75.1 19.2 75.6 20.4 76.6 21.4 77.7 22.4 79 22.8 80.7 22.8Z"/>
    <path class="b"
          d="M108.3 29.3C106.1 29.3 104 28.8 102.2 27.9 100.5 26.9 99.1 25.6 98.1 24 97.1 22.3 96.6 20.4 96.6 18.3 96.6 16.2 97.1 14.3 98.1 12.6 99.1 10.9 100.5 9.7 102.2 8.7 104 7.8 106.1 7.3 108.3 7.3 110.5 7.3 112.6 7.8 114.3 8.7 116.1 9.7 117.5 10.9 118.5 12.6 119.5 14.3 120 16.2 120 18.3 120 20.4 119.5 22.3 118.5 24 117.5 25.6 116.1 26.9 114.3 27.9 112.6 28.8 110.5 29.3 108.3 29.3ZM108.3 24.2C109.9 24.2 111.2 23.7 112.2 22.6 113.2 21.5 113.7 20.1 113.7 18.3 113.7 16.5 113.2 15.1 112.2 14 111.2 12.9 109.9 12.4 108.3 12.4 106.7 12.4 105.4 12.9 104.4 14 103.3 15.1 102.8 16.5 102.8 18.3 102.8 20.1 103.3 21.5 104.4 22.6 105.4 23.7 106.7 24.2 108.3 24.2Z"/>
</svg>
