<svg xmlns="http://www.w3.org/2000/svg" viewBox="0 0 30 30" fill="none"><path d="M29.5 15H3.8V3.6C3.8 3.2 3.9 2.9 4 2.6 4.2 2.4 4.5 2.1 4.8 2 5.1 1.9 5.5 1.8 5.8 1.9 6.1 2 6.4 2.1 6.7 2.4L8.2 3.9C7.7 4.5 7.5 5.3 7.5 6.1 7.5 7.3 8 8.3 8.8 9.1L8.1 9.8C8 9.9 8 10 8 10.1 8 10.2 8 10.4 8.1 10.4L8.8 11.1C8.8 11.2 8.9 11.2 8.9 11.2 9 11.2 9.1 11.2 9.1 11.2 9.2 11.2 9.2 11.2 9.3 11.2 9.4 11.2 9.4 11.2 9.4 11.1L16.7 3.8C16.8 3.8 16.8 3.7 16.8 3.7 16.9 3.6 16.9 3.5 16.9 3.5 16.9 3.4 16.9 3.4 16.8 3.3 16.8 3.3 16.8 3.2 16.7 3.2L16.1 2.5C16 2.4 15.9 2.4 15.7 2.4 15.6 2.4 15.5 2.4 15.4 2.5L14.7 3.2C14 2.4 12.9 1.9 11.7 1.9 10.9 1.9 10.1 2.1 9.5 2.5L8 1.1C7.5 0.5 6.9 0.2 6.2 0.1 5.5-0.1 4.7 0 4.1 0.3 3.4 0.5 2.9 1 2.5 1.6 2.1 2.2 1.9 2.9 1.9 3.6V15H0.5C0.3 15 0.2 15 0.1 15.1 0 15.2 0 15.3 0 15.5L0 16.4C0 16.5 0 16.6 0.1 16.7 0.2 16.8 0.3 16.9 0.5 16.9H1.9V22.5C1.9 24.9 3.4 27 5.6 27.8V29.5C5.6 29.7 5.7 29.8 5.8 29.9 5.9 29.9 6 30 6.1 30H7C7.2 30 7.3 29.9 7.4 29.9 7.5 29.8 7.5 29.7 7.5 29.5V28.1H22.5V29.5C22.5 29.7 22.5 29.8 22.6 29.9 22.7 29.9 22.8 30 23 30H23.9C24 30 24.1 29.9 24.2 29.9 24.3 29.8 24.4 29.7 24.4 29.5V27.8C26.6 27 28.1 24.9 28.1 22.5V16.9H29.5C29.7 16.9 29.8 16.8 29.9 16.7 30 16.6 30 16.5 30 16.4V15.5C30 15.3 30 15.2 29.9 15.1 29.8 15 29.7 15 29.5 15ZM13.4 4.5L10.1 7.8C9.9 7.6 9.7 7.3 9.6 7 9.4 6.7 9.4 6.4 9.4 6.1 9.4 5.5 9.6 4.9 10.1 4.4 10.5 4 11.1 3.7 11.7 3.7 12 3.7 12.4 3.8 12.6 3.9 12.9 4.1 13.2 4.3 13.4 4.5ZM26.3 22.5C26.2 23.5 25.9 24.4 25.2 25.1 24.4 25.9 23.5 26.2 22.5 26.2H7.5C6.5 26.2 5.6 25.9 4.8 25.1 4.1 24.4 3.8 23.5 3.8 22.5V16.9H26.3V22.5Z"/></svg>
