<svg xmlns="http://www.w3.org/2000/svg" viewBox="0 0 20 18" fill="none"><path d="M18.8 7.6V1.9C18.8 1.4 18.6 0.9 18.2 0.5 17.8 0.2 17.4 0 16.9 0H3.1C2.6 0 2.2 0.2 1.8 0.5 1.4 0.9 1.3 1.4 1.3 1.9V7.6C0.5 7.8 0 8.4 0 9.2V17.2C0 17.3 0 17.3 0.1 17.4 0.2 17.5 0.2 17.5 0.3 17.5H0.9C1 17.5 1.1 17.5 1.2 17.4 1.2 17.3 1.3 17.3 1.3 17.2V15H18.8V17.2C18.8 17.3 18.8 17.3 18.8 17.4 18.9 17.5 19 17.5 19.1 17.5H19.7C19.8 17.5 19.8 17.5 19.9 17.4 20 17.3 20 17.3 20 17.2V9.2C20 8.4 19.5 7.8 18.8 7.6ZM2.5 6.3C2.5 5.9 2.6 5.6 2.9 5.4 3.1 5.1 3.4 5 3.8 5H8.1C8.5 5 8.8 5.1 9 5.4 9.2 5.6 9.4 5.9 9.4 6.3V7.5H2.5V6.3ZM17.5 7.5H10.6V6.3C10.6 5.9 10.8 5.6 11 5.4 11.2 5.1 11.5 5 11.9 5H16.3C16.6 5 16.9 5.1 17.1 5.4 17.4 5.6 17.5 5.9 17.5 6.3V7.5ZM3.1 1.3H16.9C17 1.3 17.2 1.3 17.3 1.4 17.4 1.6 17.5 1.7 17.5 1.9V4.1C17.1 3.9 16.7 3.8 16.3 3.8H11.9C11.5 3.7 11.2 3.8 10.8 4 10.5 4.1 10.2 4.3 10 4.6 9.8 4.3 9.5 4.1 9.2 4 8.8 3.8 8.5 3.7 8.1 3.8H3.8C3.3 3.8 2.9 3.9 2.5 4.1V1.9C2.5 1.7 2.6 1.6 2.7 1.4 2.8 1.3 3 1.3 3.1 1.3ZM1.3 13.8V9.2C1.3 9.1 1.3 9 1.4 8.9 1.5 8.8 1.6 8.8 1.7 8.8H18.3C18.4 8.8 18.5 8.8 18.6 8.9 18.7 9 18.7 9.1 18.8 9.2V13.8H1.3Z"/></svg>
