<svg xmlns="http://www.w3.org/2000/svg" viewBox="0 0 20 23" fill="none"><path d="M10 21.4C9.2 21.4 8.6 20.8 8.6 20H7.1C7.1 21.6 8.4 22.9 10 22.9 11.6 22.9 12.9 21.6 12.9 20H11.4C11.4 20.8 10.8 21.4 10 21.4ZM19.3 14.9C18.1 13.8 17.1 12.5 17.1 8.3 17.1 4.7 14.3 1.8 10.7 1.5V0.7C10.7 0.3 10.4 0 10 0 9.6 0 9.3 0.3 9.3 0.7V1.5C5.7 1.8 2.9 4.7 2.9 8.3 2.9 12.5 1.9 13.8 0.7 14.9 0 15.5-0.2 16.4 0.2 17.2 0.5 18 1.3 18.6 2.1 18.6H17.9C18.7 18.6 19.5 18 19.9 17.2 20.2 16.4 20 15.5 19.3 14.9ZM17.9 17.1H2.1C1.5 17.1 1.2 16.4 1.6 16 3.2 14.5 4.3 12.8 4.3 8.3 4.3 5.3 6.8 2.9 10 2.9 13.2 2.9 15.7 5.3 15.7 8.3 15.7 12.8 16.8 14.5 18.4 16 18.8 16.4 18.5 17.1 17.9 17.1Z"/></svg>
