<svg xmlns="http://www.w3.org/2000/svg" viewBox="0 0 44 50" fill="none"><path d="M18.8 10.4V14.4C18.8 15 18.2 15.5 17.6 15.5H13.7C13 15.5 12.5 15 12.5 14.4V10.4C12.5 9.8 13 9.3 13.7 9.3H17.6C18.2 9.3 18.8 9.8 18.8 10.4ZM30.1 9.3H26.2C25.5 9.3 25 9.8 25 10.4V14.4C25 15 25.5 15.5 26.2 15.5H30.1C30.7 15.5 31.3 15 31.3 14.4V10.4C31.3 9.8 30.7 9.3 30.1 9.3ZM17.6 18.7H13.7C13 18.7 12.5 19.2 12.5 19.8V23.7C12.5 24.4 13 24.9 13.7 24.9H17.6C18.2 24.9 18.8 24.4 18.8 23.7V19.8C18.8 19.2 18.2 18.7 17.6 18.7ZM30.1 18.7H26.2C25.5 18.7 25 19.2 25 19.8V23.7C25 24.4 25.5 24.9 26.2 24.9H30.1C30.7 24.9 31.3 24.4 31.3 23.7V19.8C31.3 19.2 30.7 18.7 30.1 18.7ZM17.6 28H13.7C13 28 12.5 28.6 12.5 29.2V33.1C12.5 33.8 13 34.3 13.7 34.3H17.6C18.2 34.3 18.8 33.8 18.8 33.1V29.2C18.8 28.6 18.2 28 17.6 28ZM30.1 28H26.2C25.5 28 25 28.6 25 29.2V33.1C25 33.8 25.5 34.3 26.2 34.3H30.1C30.7 34.3 31.3 33.8 31.3 33.1V29.2C31.3 28.6 30.7 28 30.1 28ZM43.8 48V50H0V48C0 47.4 0.5 46.9 1.2 46.9H3.1V2.3C3.1 1 4.2 0 5.5 0H38.3C39.6 0 40.6 1 40.6 2.3V46.9H42.6C43.2 46.9 43.8 47.4 43.8 48ZM37.5 46.9V3.1H6.3V46.9H18.8V38.6C18.8 37.9 19.3 37.4 19.9 37.4H23.8C24.5 37.4 25 37.9 25 38.6V46.9H37.5Z"/></svg>
