<svg xmlns="http://www.w3.org/2000/svg" viewBox="0 0 20 23" fill="none"><path d="M17.9 2.9H15.7V0.5C15.7 0.2 15.5 0 15.2 0H14.8C14.5 0 14.3 0.2 14.3 0.5V2.9H5.7V0.5C5.7 0.2 5.5 0 5.2 0H4.8C4.5 0 4.3 0.2 4.3 0.5V2.9H2.1C1 2.9 0 3.8 0 5V20.7C0 21.9 1 22.9 2.1 22.9H17.9C19 22.9 20 21.9 20 20.7V5C20 3.8 19 2.9 17.9 2.9ZM2.1 4.3H17.9C18.3 4.3 18.6 4.6 18.6 5V7.1H1.4V5C1.4 4.6 1.8 4.3 2.1 4.3ZM17.9 21.4H2.1C1.8 21.4 1.4 21.1 1.4 20.7V8.6H18.6V20.7C18.6 21.1 18.3 21.4 17.9 21.4ZM6.6 14.3H4.8C4.5 14.3 4.3 14 4.3 13.8V12C4.3 11.7 4.5 11.4 4.8 11.4H6.6C6.9 11.4 7.1 11.7 7.1 12V13.8C7.1 14 6.9 14.3 6.6 14.3ZM10.9 14.3H9.1C8.8 14.3 8.6 14 8.6 13.8V12C8.6 11.7 8.8 11.4 9.1 11.4H10.9C11.2 11.4 11.4 11.7 11.4 12V13.8C11.4 14 11.2 14.3 10.9 14.3ZM15.2 14.3H13.4C13.1 14.3 12.9 14 12.9 13.8V12C12.9 11.7 13.1 11.4 13.4 11.4H15.2C15.5 11.4 15.7 11.7 15.7 12V13.8C15.7 14 15.5 14.3 15.2 14.3ZM10.9 18.6H9.1C8.8 18.6 8.6 18.3 8.6 18V16.3C8.6 16 8.8 15.7 9.1 15.7H10.9C11.2 15.7 11.4 16 11.4 16.3V18C11.4 18.3 11.2 18.6 10.9 18.6ZM6.6 18.6H4.8C4.5 18.6 4.3 18.3 4.3 18V16.3C4.3 16 4.5 15.7 4.8 15.7H6.6C6.9 15.7 7.1 16 7.1 16.3V18C7.1 18.3 6.9 18.6 6.6 18.6ZM15.2 18.6H13.4C13.1 18.6 12.9 18.3 12.9 18V16.3C12.9 16 13.1 15.7 13.4 15.7H15.2C15.5 15.7 15.7 16 15.7 16.3V18C15.7 18.3 15.5 18.6 15.2 18.6Z"/></svg>
