<svg xmlns="http://www.w3.org/2000/svg" viewBox="0 0 40 26" fill="none"><path d="M39.1 10.9L31.2 1.4C30.8 1 30.4 0.6 29.8 0.4 29.3 0.1 28.7 0 28.1 0H3C1.3 0 0 1.3 0 3V20C0 21.1 0.9 22 2 22H4.1C4.6 24.3 6.6 26 9 26 11.4 26 13.4 24.3 13.9 22H26.1C26.6 24.3 28.6 26 31 26 33.4 26 35.4 24.3 35.9 22H38C39.1 22 40 21.1 40 20V13.4C40 12.5 39.7 11.6 39.1 10.9ZM22 2H28.1C28.7 2 29.3 2.3 29.7 2.7L35.7 10H22V2ZM12 2H20V10H12V2ZM2 3C2 2.4 2.4 2 3 2H10V10H2V3ZM9 24C7.3 24 6 22.7 6 21 6 19.3 7.3 18 9 18 10.7 18 12 19.3 12 21 12 22.7 10.7 24 9 24ZM31 24C29.3 24 28 22.7 28 21 28 19.3 29.3 18 31 18 32.7 18 34 19.3 34 21 34 22.7 32.7 24 31 24ZM38 20H35.9C35.4 17.7 33.4 16 31 16 28.6 16 26.6 17.7 26.1 20H13.9C13.4 17.7 11.4 16 9 16 6.6 16 4.6 17.7 4.1 20H2V12H37.4L37.5 12.2C37.8 12.5 38 13 38 13.4V20Z"/></svg>
