<svg xmlns="http://www.w3.org/2000/svg" viewBox="0 0 20 20" fill="none"><path d="M17.5 0H2.5C1.1 0 0 1.1 0 2.5V13.8C0 15.1 1.1 16.3 2.5 16.3H6.3V19.5C6.3 19.8 6.5 20 6.7 20 6.8 20 6.9 20 7 19.9L11.9 16.3H17.5C18.9 16.3 20 15.1 20 13.8V2.5C20 1.1 18.9 0 17.5 0ZM18.8 13.8C18.8 14.4 18.2 15 17.5 15H11.5L11.1 15.3 7.5 18V15H2.5C1.8 15 1.3 14.4 1.3 13.8V2.5C1.3 1.8 1.8 1.3 2.5 1.3H17.5C18.2 1.3 18.8 1.8 18.8 2.5V13.8ZM5 7.2C4.5 7.2 4.1 7.6 4.1 8.1 4.1 8.6 4.5 9.1 5 9.1 5.5 9.1 5.9 8.6 5.9 8.1 5.9 7.6 5.5 7.2 5 7.2ZM10 7.2C9.5 7.2 9.1 7.6 9.1 8.1 9.1 8.6 9.5 9.1 10 9.1 10.5 9.1 10.9 8.6 10.9 8.1 10.9 7.6 10.5 7.2 10 7.2ZM15 7.2C14.5 7.2 14.1 7.6 14.1 8.1 14.1 8.6 14.5 9.1 15 9.1 15.5 9.1 15.9 8.6 15.9 8.1 15.9 7.6 15.5 7.2 15 7.2Z"/></svg>
