<svg xmlns="http://www.w3.org/2000/svg" viewBox="0 0 57 50" fill="none"><path d="M56 21.5L50 16.6V7C50 6.8 49.9 6.6 49.8 6.5 49.6 6.3 49.4 6.3 49.2 6.3H47.7C47.4 6.3 47.2 6.3 47.1 6.5 47 6.6 46.9 6.8 46.9 7V14.1L30.3 0.8C29.7 0.3 28.9 0 28.1 0 27.3 0 26.5 0.3 25.9 0.8L0.2 21.5C0.2 21.5 0.1 21.6 0.1 21.7 0 21.8 0 21.8 0 21.9 0 22 0 22.1 0 22.2 0.1 22.3 0.1 22.3 0.1 22.4L1.5 24.1C1.6 24.2 1.7 24.2 1.7 24.3 1.8 24.3 1.9 24.3 2 24.4 2.1 24.4 2.2 24.4 2.2 24.3 2.3 24.3 2.4 24.3 2.5 24.2L6.2 21.2V48.4C6.2 48.9 6.4 49.2 6.7 49.5 7 49.8 7.4 50 7.8 50H48.4C48.8 50 49.2 49.8 49.5 49.5 49.8 49.2 50 48.9 50 48.4V21.2L53.8 24.2C53.9 24.3 54.1 24.4 54.3 24.4 54.5 24.4 54.6 24.3 54.7 24.1L56.1 22.4C56.2 22.3 56.3 22.1 56.2 21.9 56.2 21.8 56.1 21.6 56 21.5ZM32.8 46.9H23.4V31.3H32.8V46.9ZM46.9 46.9H35.9V29.7C35.9 29.3 35.8 28.9 35.5 28.6 35.2 28.3 34.8 28.1 34.4 28.1H21.9C21.5 28.1 21.1 28.3 20.8 28.6 20.5 28.9 20.3 29.3 20.3 29.7V46.9H9.4V18.6L27.7 3.9C27.8 3.8 28 3.7 28.1 3.7 28.3 3.7 28.4 3.8 28.5 3.9L46.9 18.7V46.9Z"/></svg>
