<svg xmlns="http://www.w3.org/2000/svg" viewBox="0 0 80 63" fill="none"><path d="M73.3 0H15.6C11.9 0 8.9 3 8.9 6.7V8.9H6.7C3 8.9 0 11.9 0 15.6V55.6C0 59.2 3 62.2 6.7 62.2H64.4C68.1 62.2 71.1 59.2 71.1 55.6V53.3H73.3C77 53.3 80 50.3 80 46.7V6.7C80 3 77 0 73.3 0ZM66.7 55.6C66.7 56.8 65.7 57.8 64.4 57.8H6.7C5.4 57.8 4.4 56.8 4.4 55.6V15.6C4.4 14.3 5.4 13.3 6.7 13.3H8.9V46.7C8.9 50.3 11.9 53.3 15.6 53.3H66.7V55.6ZM75.6 46.7C75.6 47.9 74.6 48.9 73.3 48.9H15.6C14.3 48.9 13.3 47.9 13.3 46.7V6.7C13.3 5.4 14.3 4.4 15.6 4.4H73.3C74.6 4.4 75.6 5.4 75.6 6.7V46.7ZM24.4 23.3C28.7 23.3 32.2 19.9 32.2 15.6 32.2 11.3 28.7 7.8 24.4 7.8 20.1 7.8 16.7 11.3 16.7 15.6 16.7 19.9 20.1 23.3 24.4 23.3ZM24.4 12.2C26.3 12.2 27.8 13.7 27.8 15.6 27.8 17.4 26.3 18.9 24.4 18.9 22.6 18.9 21.1 17.4 21.1 15.6 21.1 13.7 22.6 12.2 24.4 12.2ZM57.9 15.4C56.6 14.1 54.5 14.1 53.2 15.4L40 28.6 35.7 24.3C34.4 23 32.3 23 31 24.3L18.8 36.5C18.1 37.2 17.8 38 17.8 38.9V42.8C17.8 43.7 18.5 44.4 19.4 44.4H69.4C70.4 44.4 71.1 43.7 71.1 42.8V30C71.1 29.1 70.8 28.3 70.1 27.6L57.9 15.4ZM66.7 40H22.2V39.3L33.3 28.2 40 34.9 55.6 19.3 66.7 30.5V40Z"/></svg>
