<svg xmlns="http://www.w3.org/2000/svg" viewBox="0 0 30 23" fill="none"><path d="M29.5 20.6H28.1V16.9C28.1 9.9 22.7 4.3 15.9 3.8V1.9H18.3C18.5 1.9 18.8 1.7 18.8 1.4V0.5C18.8 0.2 18.5 0 18.3 0H11.7C11.5 0 11.3 0.2 11.3 0.5V1.4C11.3 1.7 11.5 1.9 11.7 1.9H14.1V3.8C7.3 4.3 1.9 9.9 1.9 16.9V20.6H0.5C0.2 20.6 0 20.8 0 21.1V22C0 22.3 0.2 22.5 0.5 22.5H29.5C29.8 22.5 30 22.3 30 22V21.1C30 20.8 29.8 20.6 29.5 20.6ZM26.3 20.6H3.8V16.9C3.8 11 8.3 6.1 14.2 5.7 15.2 5.6 14.8 5.6 15.8 5.7 21.7 6.1 26.3 11 26.3 16.9V20.6Z"/></svg>
