<svg xmlns="http://www.w3.org/2000/svg" viewBox="0 0 30 35" fill="none"><path d="M26 22.3L29.5 21.4C29.8 21.3 29.9 21 29.9 20.7L29.6 19.7C29.5 19.4 29.2 19.2 29 19.3L23.4 20.8 17.1 17.1 23.4 13.5 29 15C29.2 15 29.5 14.9 29.6 14.6L29.9 13.6C29.9 13.3 29.8 13 29.5 12.9L26 11.9 29.7 9.8C30 9.6 30.1 9.3 29.9 9L29.4 8.1C29.2 7.8 28.9 7.8 28.7 7.9L24.9 10.1 25.9 6.5C25.9 6.2 25.8 5.9 25.5 5.9L24.5 5.6C24.2 5.5 23.9 5.7 23.8 6L22.3 11.6 16 15.3V7.9L20.1 3.8C20.3 3.6 20.3 3.3 20.1 3.1L19.4 2.3C19.2 2.1 18.8 2.1 18.6 2.3L16 4.9V0.5C16 0.2 15.8 0 15.5 0H14.5C14.2 0 13.9 0.2 13.9 0.5V4.9L11.3 2.3C11.1 2.1 10.8 2.1 10.6 2.3L9.8 3.1C9.6 3.3 9.6 3.6 9.8 3.8L13.9 7.9V15.3L7.6 11.6 6.2 6C6.1 5.7 5.8 5.5 5.5 5.6L4.5 5.9C4.2 5.9 4 6.2 4.1 6.5L5.1 10.1 1.3 7.9C1.1 7.7 0.7 7.8 0.6 8.1L0.1 9C-0.1 9.3 0 9.6 0.3 9.7L4 11.9 0.5 12.9C0.2 13 0 13.3 0.1 13.6L0.4 14.6C0.5 14.9 0.8 15 1 15L6.6 13.5 12.9 17.1 6.6 20.8 1 19.3C0.8 19.2 0.5 19.4 0.4 19.7L0.1 20.7C0 21 0.2 21.3 0.5 21.4L4 22.3 0.3 24.5C0 24.6-0.1 25 0.1 25.2L0.6 26.2C0.8 26.4 1.1 26.5 1.3 26.4L5.1 24.2 4.1 27.7C4.1 28 4.2 28.3 4.5 28.4L5.5 28.7C5.8 28.7 6.1 28.6 6.2 28.3L7.7 22.6 13.9 19V26.3L9.9 30.4C9.7 30.7 9.7 31 9.9 31.2L10.6 32C10.8 32.2 11.2 32.2 11.4 32L13.9 29.3V33.7C13.9 34 14.2 34.3 14.5 34.3H15.5C15.8 34.3 16.1 34 16.1 33.7V29.3L18.6 32C18.8 32.2 19.2 32.2 19.4 32L20.1 31.2C20.3 31 20.3 30.7 20.1 30.4L16.1 26.3V19L22.3 22.7 23.8 28.3C23.9 28.6 24.2 28.7 24.5 28.7L25.5 28.4C25.8 28.3 26 28 25.9 27.7L24.9 24.2 28.7 26.4C28.9 26.5 29.3 26.4 29.4 26.2L29.9 25.2C30.1 25 30 24.7 29.7 24.5L26 22.3Z"/></svg>
