<svg xmlns="http://www.w3.org/2000/svg" viewBox="0 0 7 7" fill="none">
  <path
    d="M1.4 3.1H0.3C0.1 3.1 0 3.2 0 3.4V6.7C0 6.9 0.1 7 0.3 7H1.4C1.6 7 1.8 6.9 1.8 6.7V3.4C1.8 3.2 1.6 3.1 1.4 3.1ZM0.9 6.5C0.7 6.5 0.5 6.3 0.5 6.1 0.5 5.9 0.7 5.8 0.9 5.8 1.1 5.8 1.2 5.9 1.2 6.1 1.2 6.3 1.1 6.5 0.9 6.5ZM5.3 1.1C5.3 1.7 4.9 2 4.8 2.4H6.2C6.6 2.4 7 2.8 7 3.2 7 3.4 6.9 3.7 6.7 3.9L6.7 3.9C6.9 4.2 6.8 4.6 6.6 5 6.7 5.3 6.6 5.8 6.4 6 6.4 6.2 6.4 6.4 6.3 6.6 6 7 5.3 7 4.7 7L4.7 7C4 7 3.5 6.8 3.1 6.6 2.9 6.5 2.6 6.3 2.3 6.3 2.3 6.3 2.2 6.3 2.2 6.2V3.3C2.2 3.2 2.2 3.2 2.2 3.1 2.8 2.6 3 2 3.5 1.6 3.7 1.4 3.7 1.1 3.8 0.8 3.9 0.5 4 0 4.3 0 4.6 0 5.3 0.1 5.3 1.1Z"/>
</svg>
