<svg xmlns="http://www.w3.org/2000/svg" viewBox="0 0 20 23" fill="none"><path d="M14 12.9C12.7 12.9 12.1 13.6 10 13.6 7.9 13.6 7.3 12.9 6 12.9 2.7 12.9 0 15.5 0 18.9V20.7C0 21.9 1 22.9 2.1 22.9H17.9C19 22.9 20 21.9 20 20.7V18.9C20 15.5 17.3 12.9 14 12.9ZM18.6 20.7C18.6 21.1 18.3 21.4 17.9 21.4H2.1C1.8 21.4 1.4 21.1 1.4 20.7V18.9C1.4 16.3 3.5 14.3 6 14.3 6.9 14.3 7.7 15 10 15 12.3 15 13.1 14.3 14 14.3 16.5 14.3 18.6 16.3 18.6 18.9V20.7ZM10 11.4C13.2 11.4 15.7 8.9 15.7 5.7 15.7 2.6 13.2 0 10 0 6.8 0 4.3 2.6 4.3 5.7 4.3 8.9 6.8 11.4 10 11.4ZM10 1.4C12.4 1.4 14.3 3.4 14.3 5.7 14.3 8.1 12.4 10 10 10 7.6 10 5.7 8.1 5.7 5.7 5.7 3.4 7.6 1.4 10 1.4Z"/></svg>
