<svg xmlns="http://www.w3.org/2000/svg" viewBox="0 0 20 14" fill="none"><path d="M17 6C18.4 6 19.5 4.9 19.5 3.5 19.5 2.1 18.4 1 17 1 15.6 1 14.5 2.1 14.5 3.5 14.5 4.9 15.6 6 17 6ZM17 2C17.8 2 18.5 2.7 18.5 3.5 18.5 4.3 17.8 5 17 5 16.2 5 15.5 4.3 15.5 3.5 15.5 2.7 16.2 2 17 2ZM10 7C11.9 7 13.5 5.4 13.5 3.5 13.5 1.6 11.9 0 10 0 8.1 0 6.5 1.6 6.5 3.5 6.5 5.4 8.1 7 10 7ZM10 1C11.4 1 12.5 2.1 12.5 3.5 12.5 4.9 11.4 6 10 6 8.6 6 7.5 4.9 7.5 3.5 7.5 2.1 8.6 1 10 1ZM17.6 7H16.4C15.9 7 15.5 7.2 15.1 7.4 15.4 7.6 15.7 7.8 15.9 8.1 16 8 16.2 8 16.4 8H17.6C18.4 8 19 8.7 19 9.5 19 9.8 19.2 10 19.5 10 19.8 10 20 9.8 20 9.5 20 8.1 18.9 7 17.6 7ZM3 6C4.4 6 5.5 4.9 5.5 3.5 5.5 2.1 4.4 1 3 1 1.6 1 0.5 2.1 0.5 3.5 0.5 4.9 1.6 6 3 6ZM3 2C3.8 2 4.5 2.7 4.5 3.5 4.5 4.3 3.8 5 3 5 2.2 5 1.5 4.3 1.5 3.5 1.5 2.7 2.2 2 3 2ZM12.5 7.6C11.5 7.6 11.2 8 10 8 8.8 8 8.5 7.6 7.5 7.6 6.4 7.6 5.3 8.1 4.6 9.1 4.2 9.7 4 10.4 4 11.1V12.5C4 13.3 4.7 14 5.5 14H14.5C15.3 14 16 13.3 16 12.5V11.1C16 10.4 15.8 9.7 15.4 9.1 14.7 8.1 13.6 7.6 12.5 7.6ZM15 12.5C15 12.8 14.8 13 14.5 13H5.5C5.2 13 5 12.8 5 12.5V11.1C5 10.6 5.2 10.1 5.4 9.7 5.9 9 6.6 8.6 7.5 8.6 8.4 8.6 8.7 9 10 9 11.3 9 11.7 8.6 12.5 8.6 13.4 8.6 14.1 9 14.6 9.7 14.8 10.1 15 10.6 15 11.1V12.5H15ZM4.9 7.4C4.5 7.2 4.1 7 3.6 7H2.4C1.1 7 0 8.1 0 9.5 0 9.8 0.2 10 0.5 10 0.8 10 1 9.8 1 9.5 1 8.7 1.6 8 2.4 8H3.6C3.8 8 4 8 4.1 8.1 4.4 7.8 4.6 7.6 4.9 7.4Z"/></svg>
