<svg xmlns="http://www.w3.org/2000/svg" viewBox="0 0 40 28" fill="none"><path d="M20 18C17.2 18 15 20.2 15 23 15 25.8 17.2 28 20 28 22.8 28 25 25.8 25 23 25 20.2 22.8 18 20 18ZM20 26C18.3 26 17 24.7 17 23 17 21.3 18.3 20 20 20 21.7 20 23 21.3 23 23 23 24.7 21.7 26 20 26ZM39.8 7.9C28.7-2.6 11.3-2.6 0.2 7.9 -0.1 8.2-0.1 8.7 0.2 9L0.6 9.3C0.9 9.6 1.3 9.6 1.6 9.3 11.9-0.4 28.1-0.4 38.4 9.3 38.7 9.6 39.1 9.6 39.4 9.3L39.8 9C40.1 8.7 40.1 8.2 39.8 7.9ZM32.9 14.9C25.5 8.4 14.4 8.4 7.1 14.9 6.8 15.2 6.8 15.7 7.1 16L7.4 16.3C7.7 16.6 8.2 16.6 8.5 16.4 15 10.5 25 10.5 31.5 16.4 31.8 16.6 32.3 16.6 32.6 16.3L32.9 16C33.2 15.7 33.2 15.2 32.9 14.9Z"/></svg>
