<svg xmlns="http://www.w3.org/2000/svg" viewBox="0 0 20 18" fill="none"><path d="M19.4 5.6C19.4 5.6 19.3 5.6 19.2 5.6L13.3 7.8 13 7.7C13.8 6.4 14.4 5.2 14.4 4.3 14.4 1.9 12.5 0 10 0 7.5 0 5.6 1.9 5.6 4.3 5.6 4.7 5.7 5.2 5.9 5.7L0.7 7.5C0.3 7.7 0 8.1 0 8.5V17.2C0 17.5 0.3 17.8 0.6 17.8 0.6 17.8 0.7 17.8 0.8 17.7L6.7 15.6 12.6 17.7C13.1 17.8 13.6 17.8 14 17.7L19.3 15.8C19.7 15.7 20 15.3 20 14.8V6.1C20 5.8 19.7 5.6 19.4 5.6ZM6.1 14.6L1.1 16.4 1.1 8.5 6.1 6.8V14.6ZM10 1.1C11.8 1.1 13.3 2.5 13.3 4.3 13.3 5.2 12 7.4 10 9.7 8 7.4 6.7 5.2 6.7 4.3 6.7 2.5 8.2 1.1 10 1.1ZM12.8 16.5L7.2 14.6V7.9C8.1 9.2 9 10.3 9.6 10.9 9.7 11 9.8 11.1 10 11.1 10.2 11.1 10.3 11 10.4 10.9 10.9 10.4 11.6 9.6 12.3 8.6L12.8 8.8V16.5ZM13.9 16.5V8.8L18.9 6.9 18.9 14.8 13.9 16.5ZM10.8 4.4C10.8 4 10.5 3.6 10 3.6 9.5 3.6 9.2 4 9.2 4.4 9.2 4.9 9.5 5.3 10 5.3 10.5 5.3 10.8 4.9 10.8 4.4Z"/></svg>
